# xmcd
#
# Track frame offsets:
#	150
#	18020
#	39982
#	59090
#	76212
#	94524
#	110482
#	125014
#
# Disc length: 1931 seconds
#
# Revision: 1
# Processed by: cddbd v1.5.2PL0 Copyright (c) Steve Scherf et al.
# Submitted via: audiograbber 1.83.01
#
DISCID=5c078908
DTITLE=Doc Holiday - Pay Back´s A Bitch
DYEAR=2000
DGENRE=Country
TTITLE0=Pay Back´s A Bitch
TTITLE1=How Can You Live
TTITLE2=Can You Sjuell
TTITLE3=Get Off Your Knees And Close Your Mouth
TTITLE4=Little Miss I Never Do Nothin´ Wrong
TTITLE5=Take A Good Look At You
TTITLE6=The Biggest Pig I Know
TTITLE7=Gonna Tell The World
EXTD=
EXTT0=
EXTT1=
EXTT2=
EXTT3=
EXTT4=
EXTT5=
EXTT6=
EXTT7=
PLAYORDER=
